<svg xmlns="http://www.w3.org/2000/svg" viewBox="0 0 128 128" role="img" aria-label="Memory Sherlock icon">
  <defs>
    <linearGradient id="tile" x1="18" y1="10" x2="112" y2="124" gradientUnits="userSpaceOnUse">
      <stop offset="0" stop-color="#202833"/>
      <stop offset="0.58" stop-color="#101722"/>
      <stop offset="1" stop-color="#070b12"/>
    </linearGradient>
    <linearGradient id="lens" x1="36" y1="30" x2="84" y2="86" gradientUnits="userSpaceOnUse">
      <stop offset="0" stop-color="#f5fbff"/>
      <stop offset="0.46" stop-color="#c8d9e6"/>
      <stop offset="1" stop-color="#7d93a6"/>
    </linearGradient>
    <linearGradient id="handle" x1="76" y1="78" x2="108" y2="111" gradientUnits="userSpaceOnUse">
      <stop offset="0" stop-color="#dbe7ef"/>
      <stop offset="1" stop-color="#6c7f91"/>
    </linearGradient>
    <radialGradient id="glow" cx="57" cy="55" r="42" gradientUnits="userSpaceOnUse">
      <stop offset="0" stop-color="#29d6d1" stop-opacity="0.3"/>
      <stop offset="1" stop-color="#29d6d1" stop-opacity="0"/>
    </radialGradient>
    <filter id="shadow" x="-20%" y="-20%" width="140%" height="150%">
      <feDropShadow dx="0" dy="8" stdDeviation="5" flood-color="#000812" flood-opacity="0.55"/>
    </filter>
  </defs>

  <rect width="128" height="128" rx="28" fill="url(#tile)"/>
  <rect x="7" y="7" width="114" height="114" rx="23" fill="none" stroke="#334052" stroke-opacity="0.75" stroke-width="1.5"/>
  <circle cx="58" cy="57" r="48" fill="url(#glow)"/>

  <g stroke="#31465a" stroke-width="2.2" stroke-linecap="round" opacity="0.7">
    <path d="M25 41h18l11 13h19l14-18h16"/>
    <path d="M24 76h22l11-13h21l12 13h17"/>
    <path d="M39 25v16"/>
    <path d="M92 36v22"/>
    <path d="M35 91h19l13-15"/>
  </g>
  <g fill="#2dd7d2">
    <circle cx="25" cy="41" r="3.4"/>
    <circle cx="54" cy="54" r="3.4"/>
    <circle cx="87" cy="36" r="3.4"/>
    <circle cx="46" cy="76" r="3.4"/>
    <circle cx="90" cy="76" r="3.4"/>
    <circle cx="54" cy="91" r="3.4"/>
  </g>

  <g filter="url(#shadow)">
    <circle cx="58" cy="56" r="28" fill="#14202b" fill-opacity="0.66" stroke="url(#lens)" stroke-width="8"/>
    <circle cx="58" cy="56" r="19" fill="#1ad3cd" fill-opacity="0.12" stroke="#64f0eb" stroke-opacity="0.36" stroke-width="1.5"/>
    <path d="M78 77l26 26" stroke="url(#handle)" stroke-width="12" stroke-linecap="round"/>
    <path d="M78 77l26 26" stroke="#0c121b" stroke-opacity="0.35" stroke-width="5" stroke-linecap="round"/>
    <path d="M45 43c5-5 12-7 19-5" stroke="#ffffff" stroke-opacity="0.72" stroke-width="4" stroke-linecap="round"/>
  </g>

  <path d="M22 18h38" stroke="#ffffff" stroke-opacity="0.12" stroke-width="2" stroke-linecap="round"/>
</svg>
